<?xml version="1.0" encoding="utf-8"?>
<!-- Generator: Adobe Illustrator 21.0.0, SVG Export Plug-In . SVG Version: 6.00 Build 0)  -->
<svg version="1.1" id="Layer_1" xmlns="http://www.w3.org/2000/svg" xmlns:xlink="http://www.w3.org/1999/xlink" x="0px" y="0px"
	 viewBox="0 0 405.5 94.5" style="enable-background:new 0 0 405.5 94.5;" xml:space="preserve">
<path d="M45,65.1c-7.2,6.1-13.8,6-22.8,6H0V1.3h21.5c8.4,0,16.3,0.1,22.4,6.8c2.9,3.2,4.2,7.2,4.2,11.5c0,5.9-2.9,11.1-8.1,14.1
	c7.6,2.6,11.5,8.3,11.5,16.2C51.4,55.5,49.4,61.4,45,65.1z M24,17h-6.9v10.9h6.8c3.9,0,7.1-1.1,7.1-5.6C31,17.8,27.6,17,24,17z
	 M26,42.7h-9v12.7h8.9c4.4,0,8.4-1.5,8.4-6.7C34.3,43.8,30.2,42.7,26,42.7z"/>
<path d="M81.5,72.8c-16,0-28.2-11.8-28.2-27.8s12.2-27.8,28.2-27.8S109.7,29,109.7,45S97.5,72.8,81.5,72.8z M81.5,31.7
	c-7.3,0-12.5,6.1-12.5,13.2s5.3,13.2,12.5,13.2C88.7,58.1,94,52,94,44.9S88.7,31.7,81.5,31.7z"/>
<path d="M127.2,44.4v26.8h-15.7V18.8h14.7v7.6h0.2c2.7-5.4,7.1-7.4,13.1-7.4v15.8C132.6,34.9,127.2,36.3,127.2,44.4z"/>
<path d="M175.7,71.1V42.6c0-5.9-1.1-10.9-8.2-10.9c-7.3,0-9,4.7-9,10.9v28.5h-15.7V18.8h14.6v5.6h0.2c3.3-5.4,7.9-7.4,14.2-7.4
	c4.4,0,10,1.7,13.4,4.5c5,4.2,6,10.8,6,16.9v32.7C191.2,71.1,175.7,71.1,175.7,71.1z"/>
<path d="M227.4,71.1V30.7h-13.5v40.5h-15.7V30.7h-5.9V18.8h5.9V16c0-12.7,9.1-16,20-16h2.4v11.8c-5.7,0-6.7,1.1-6.7,7h29.2v52.4
	L227.4,71.1L227.4,71.1z M227.4,13.2V1.3h15.7v11.9H227.4z"/>
<path d="M298.5,82.1c-5.2,8.8-17,12.4-26.5,12.4c-8.9,0-17.7-2.7-22.9-10.3c-1.7-2.5-2.8-5.2-3.2-8.1H264c1.7,3.8,5.3,5.2,9.2,5.2
	c8.6,0,12.7-5.9,12.7-14.2v-1.6h-0.2c-2.7,5.1-8.8,7.5-14.3,7.5C255.7,73,245,60.7,245,45.4c0-15.4,10.5-28.2,26.4-28.2
	c5.4,0,11.4,1.8,14.4,6.6h0.2v-4.9h15.7v46C301.6,70.7,301.5,76.9,298.5,82.1z M273.2,31.7c-7.3,0-12.6,5.9-12.6,13
	c0,7.3,5,13.5,12.5,13.5s12.8-5.5,12.8-13S281,31.7,273.2,31.7z"/>
<path d="M338.1,71.1V42.7c0-5.7-1.6-10.9-8.4-10.9s-8.8,4.4-8.8,10.4v29.1h-15.7v-70h15.7v22.3h0.2c2.7-4.9,8.2-6.6,13.5-6.6
	c5.1,0,10.9,1.8,14.2,5.8c5,5.8,4.9,12,4.9,19.2v29.3h-15.6V71.1z"/>
<path d="M376.3,30.7v40.5h-15.7V30.7h-6.7V18.8h6.7V1.3h15.7v17.5h7.5v11.9C383.8,30.7,376.3,30.7,376.3,30.7z"/>
<path d="M405.5,60c0,1.5-0.3,2.9-0.9,4.3s-1.4,2.6-2.4,3.5c-1,1-2.2,1.8-3.5,2.4s-2.8,0.9-4.3,0.9s-2.9-0.3-4.3-0.9
	s-2.6-1.4-3.5-2.4c-1-1-1.8-2.2-2.4-3.5c-0.6-1.4-0.9-2.8-0.9-4.3s0.3-2.9,0.9-4.3s1.4-2.6,2.4-3.5s2.2-1.8,3.5-2.4s2.8-0.9,4.3-0.9
	s2.9,0.3,4.3,0.9s2.6,1.4,3.5,2.4c1,1,1.8,2.2,2.4,3.5S405.5,58.5,405.5,60z M394.4,50.9c-1.2,0-2.4,0.2-3.5,0.7s-2.1,1.1-2.9,1.9
	c-0.8,0.8-1.5,1.8-1.9,2.9c-0.5,1.1-0.7,2.3-0.7,3.5s0.2,2.4,0.7,3.5c0.5,1.1,1.1,2.1,1.9,2.9c0.8,0.8,1.8,1.5,2.9,1.9
	s2.3,0.7,3.5,0.7s2.4-0.2,3.5-0.7s2.1-1.1,2.9-1.9s1.5-1.8,1.9-2.9s0.7-2.3,0.7-3.5s-0.2-2.4-0.7-3.5s-1.1-2.1-1.9-2.9
	c-0.8-0.8-1.8-1.5-2.9-1.9C396.8,51.1,395.7,50.9,394.4,50.9z M396.9,61.2l2.5,4.6c0.1,0.1,0.1,0.3,0,0.4s-0.2,0.2-0.3,0.2h-1.9
	c-0.2,0-0.3-0.1-0.3-0.2l-2.4-4.5h-1.9V66c0,0.1,0,0.2-0.1,0.3c-0.1,0.1-0.2,0.1-0.3,0.1h-1.7c-0.1,0-0.2,0-0.3-0.1
	c-0.1-0.1-0.1-0.2-0.1-0.3V54.1c0-0.1,0-0.2,0.1-0.3s0.2-0.1,0.3-0.1h3.6c1.1,0,1.8,0.1,2.4,0.3c0.7,0.3,1.3,0.7,1.7,1.4
	c0.4,0.6,0.6,1.4,0.6,2.2s-0.2,1.4-0.5,2.1C397.9,60.3,397.5,60.8,396.9,61.2C396.8,61,396.8,61.1,396.9,61.2z M396.2,57.6
	c0-0.7-0.2-1.2-0.7-1.5c-0.3-0.1-0.8-0.2-1.5-0.2h-1.5v3.5h2c0.5,0,1-0.2,1.3-0.5C396.1,58.6,396.2,58.2,396.2,57.6z"/>
</svg>
